<svg width="155" height="38" viewBox="0 0 155 38" fill="none" xmlns="http://www.w3.org/2000/svg">
<path d="M44.8775 21.1163C44.8775 21.9114 44.7412 22.6269 44.4686 23.2687C44.196 23.9104 43.8098 24.4727 43.3044 24.9554C44.0995 25.4381 44.7185 26.0799 45.1615 26.8749C45.6044 27.67 45.8316 28.573 45.8316 29.5782C45.8316 30.413 45.6726 31.1741 45.3545 31.8726C45.0365 32.5711 44.5879 33.1731 44.0199 33.6729C43.4464 34.1783 42.7705 34.5702 41.9868 34.8485C41.2031 35.1267 40.3342 35.2687 39.3858 35.2687H30.5547V15.7949H38.6588C39.6072 15.7949 40.4648 15.9199 41.2315 16.1754C41.9982 16.4253 42.6513 16.7831 43.1908 17.2488C43.7303 17.7145 44.1506 18.271 44.4402 18.9185C44.7298 19.5716 44.8775 20.3042 44.8775 21.1163ZM38.6304 18.9923H34.0417V23.7855H38.6304C39.4823 23.7855 40.1695 23.564 40.692 23.1153C41.2144 22.6724 41.4757 22.0874 41.4757 21.3718C41.4757 20.6733 41.2144 20.1054 40.692 19.6567C40.1695 19.2194 39.4823 18.9923 38.6304 18.9923ZM42.3446 29.5101C42.3446 28.7718 42.072 28.1698 41.5325 27.6927C40.9873 27.2157 40.2717 26.9828 39.3801 26.9828H34.036V32.0657H39.3801C40.2717 32.0657 40.9873 31.8215 41.5325 31.3387C42.0777 30.8617 42.3446 30.2484 42.3446 29.5101Z" fill="white"/>
<path d="M55.3315 24.2208C54.3035 24.2208 53.4914 24.4991 52.8894 25.0613C52.2874 25.6235 51.9864 26.3902 51.9864 27.3557V35.2611H48.7891V27.475C48.7891 26.4868 48.9424 25.5952 49.2548 24.8001C49.5614 24.005 50.0044 23.3292 50.578 22.7669C51.1516 22.2047 51.8388 21.7731 52.6395 21.4721C53.446 21.1711 54.3376 21.0234 55.3258 21.0234V24.2208H55.3315Z" fill="white"/>
<path d="M67.8861 28.4361V26.5449H71.0835V30.3784C71.0835 30.9974 71.2596 31.4801 71.623 31.8322C71.9808 32.1787 72.4806 32.3547 73.1166 32.3547V35.5521C72.225 35.5521 71.4186 35.376 70.6916 35.0296C69.9647 34.6832 69.3798 34.1948 68.9311 33.5757C68.2894 34.1948 67.5511 34.6775 66.7106 35.0296C65.87 35.376 64.95 35.5521 63.9675 35.5521C62.985 35.5521 62.048 35.3703 61.1791 35.0012C60.3045 34.6321 59.5492 34.1266 58.9131 33.4905C58.2714 32.8488 57.7716 32.0935 57.4024 31.2246C57.0333 30.35 56.8516 29.4243 56.8516 28.4361C56.8516 27.4309 57.0333 26.4938 57.4024 25.6306C57.7716 24.7674 58.277 24.0177 58.9131 23.376C59.5548 22.7342 60.3102 22.2345 61.1791 21.8653C62.048 21.4962 62.9794 21.3145 63.9675 21.3145H71.0892V24.5118H63.9675C63.4223 24.5118 62.9169 24.614 62.4398 24.8185C61.9628 25.0229 61.5482 25.2955 61.1904 25.6476C60.8326 25.9941 60.5487 26.4086 60.3499 26.88C60.1455 27.3571 60.0432 27.8739 60.0432 28.4361C60.0432 28.9813 60.1455 29.4924 60.3499 29.9752C60.5544 30.4579 60.8326 30.8781 61.1904 31.2246C61.5482 31.571 61.9628 31.8493 62.4398 32.0537C62.9169 32.2582 63.4223 32.3604 63.9675 32.3604C64.5298 32.3604 65.0466 32.2582 65.5236 32.0537C66.0007 31.8493 66.4096 31.5767 66.756 31.2246C67.1024 30.8781 67.3807 30.4579 67.5852 29.9752C67.7839 29.4924 67.8861 28.9813 67.8861 28.4361Z" fill="white"/>
<path d="M76.8066 14.6348C77.3859 14.6348 77.8743 14.8279 78.2604 15.214C78.6466 15.6002 78.8397 16.0886 78.8397 16.6679C78.8397 17.2472 78.6466 17.7356 78.2604 18.1218C77.8743 18.5079 77.3859 18.701 76.8066 18.701C76.2273 18.701 75.7389 18.5079 75.3527 18.1218C74.9665 17.7356 74.7734 17.2472 74.7734 16.6679C74.7734 16.0886 74.9665 15.6002 75.3527 15.214C75.7446 14.8279 76.2273 14.6348 76.8066 14.6348ZM75.2107 21.3191H78.4081V35.2671H75.2107V21.3191Z" fill="white"/>
<path d="M88.2008 24.221C87.1956 24.221 86.3834 24.5163 85.7758 25.1069C85.1681 25.6976 84.8614 26.487 84.8614 27.4751V35.2612H81.6641V27.4751C81.6641 26.5437 81.8288 25.6862 82.1581 24.8911C82.4875 24.096 82.9419 23.4145 83.5211 22.8409C84.1004 22.2673 84.7876 21.8244 85.5827 21.5063C86.3778 21.1883 87.2467 21.0293 88.1951 21.0293C89.1435 21.0293 90.0181 21.1883 90.8075 21.5063C91.6026 21.8244 92.2898 22.273 92.869 22.8409C93.4483 23.4145 93.9026 24.096 94.2207 24.8911C94.5387 25.6862 94.6977 26.5494 94.6977 27.4751V35.2612H91.5004V27.4751C91.5004 26.487 91.1994 25.6976 90.5974 25.1069C90.0124 24.5163 89.206 24.221 88.2008 24.221Z" fill="white"/>
<path d="M109.763 26.4016H106.565C106.565 25.7031 106.281 25.1408 105.725 24.7149C105.163 24.2889 104.419 24.0731 103.487 24.0731C102.732 24.0731 102.107 24.2322 101.613 24.5502C101.119 24.8682 100.875 25.2714 100.875 25.7542C100.875 26.2369 101.119 26.6628 101.602 27.0206C102.085 27.3784 102.692 27.7305 103.419 28.0826C104.146 28.429 104.93 28.7982 105.77 29.1844C106.611 29.5706 107.4 30.0362 108.122 30.5814C108.848 31.1266 109.45 31.7741 109.939 32.5294C110.422 33.2847 110.666 34.1934 110.666 35.2611H107.468C107.468 34.5455 107.224 33.9492 106.741 33.4721C106.259 32.9951 105.651 32.5691 104.924 32.1773C104.197 31.7911 103.413 31.4163 102.573 31.0585C101.732 30.7007 100.943 30.2861 100.222 29.8261C99.4949 29.3604 98.8872 28.8039 98.4045 28.1564C97.9218 27.509 97.6776 26.7083 97.6776 25.7598C97.6776 25.084 97.8252 24.4536 98.1262 23.8687C98.4272 23.2894 98.8418 22.784 99.3756 22.358C99.9095 21.9321 100.54 21.6027 101.267 21.3699C101.994 21.137 102.794 21.0234 103.663 21.0234C104.572 21.0234 105.401 21.1541 106.145 21.4153C106.889 21.6765 107.531 22.0457 108.065 22.5171C108.599 22.9941 109.013 23.5563 109.314 24.2151C109.609 24.8796 109.763 25.6065 109.763 26.4016ZM99.705 31.4844C100.284 31.4844 100.773 31.6775 101.159 32.0637C101.545 32.4499 101.738 32.9326 101.738 33.5176C101.738 34.1025 101.545 34.5852 101.159 34.9714C100.773 35.3576 100.284 35.5507 99.705 35.5507C99.1257 35.5507 98.6373 35.3576 98.2511 34.9714C97.865 34.5852 97.6719 34.1025 97.6719 33.5176C97.6719 32.9326 97.865 32.4499 98.2511 32.0637C98.643 31.6775 99.1257 31.4844 99.705 31.4844Z" fill="white"/>
<path d="M112.031 21.3196H113.775V17.543H116.972V21.3196H120.311V24.517H116.972V29.1682C116.972 30.2132 117.256 31.0082 117.83 31.5534C118.403 32.0986 119.227 32.3656 120.317 32.3656V35.5629C119.329 35.5629 118.432 35.4096 117.631 35.0972C116.824 34.7905 116.137 34.3589 115.569 33.8024C114.996 33.2515 114.558 32.5757 114.246 31.7806C113.934 30.9855 113.78 30.1166 113.78 29.1682V24.517H112.037V21.3196H112.031Z" fill="white"/>
<path d="M133.292 28.4361V26.5449H136.49V30.3784C136.49 30.9974 136.666 31.4801 137.029 31.8322C137.387 32.1787 137.887 32.3547 138.523 32.3547V35.5521C137.631 35.5521 136.825 35.376 136.098 35.0296C135.371 34.6832 134.786 34.1948 134.337 33.5757C133.696 34.1948 132.957 34.6775 132.117 35.0296C131.276 35.376 130.356 35.5521 129.374 35.5521C128.391 35.5521 127.454 35.3703 126.585 35.0012C125.711 34.6321 124.955 34.1266 124.319 33.4905C123.678 32.8488 123.178 32.0935 122.809 31.2246C122.44 30.35 122.258 29.4243 122.258 28.4361C122.258 27.4309 122.44 26.4938 122.809 25.6306C123.178 24.7674 123.683 24.0177 124.319 23.376C124.961 22.7342 125.716 22.2345 126.585 21.8653C127.454 21.4962 128.386 21.3145 129.374 21.3145H136.495V24.5118H129.368C128.823 24.5118 128.317 24.614 127.84 24.8185C127.363 25.0229 126.949 25.2955 126.591 25.6476C126.233 25.9941 125.949 26.4086 125.751 26.88C125.546 27.3571 125.444 27.8739 125.444 28.4361C125.444 28.9813 125.546 29.4924 125.751 29.9752C125.955 30.4579 126.233 30.8781 126.591 31.2246C126.949 31.571 127.363 31.8493 127.84 32.0537C128.317 32.2582 128.823 32.3604 129.368 32.3604C129.93 32.3604 130.447 32.2582 130.924 32.0537C131.401 31.8493 131.81 31.5767 132.157 31.2246C132.503 30.8781 132.781 30.4579 132.986 29.9752C133.19 29.4924 133.292 28.9813 133.292 28.4361Z" fill="white"/>
<path d="M150.441 21.3203H154.337L149.425 28.0615L154.627 35.2683H150.731L147.329 30.123L143.927 35.2683H140.031L145.233 28.0615L140.321 21.3203H144.217L147.323 26.0567L150.441 21.3203Z" fill="white"/>
<path d="M8.61527 4.89543V37.9992L0 33.1038V0L8.61527 4.89543Z" fill="white"/>
<path d="M21.2481 20.6611V33.1041L16.9376 35.5518L12.6328 37.9995V15.7656L16.9376 18.2133L21.2481 20.6611Z" fill="white"/>
</svg>
