<svg width="16" height="16" viewBox="0 0 16 16" fill="none" xmlns="http://www.w3.org/2000/svg">
<path d="M16 7.67969V15.36C16 15.5297 15.9298 15.6925 15.8047 15.8125C15.6797 15.9326 15.5101 16 15.3333 16H10.6667C10.4899 16 10.3203 15.9326 10.1953 15.8125C10.0702 15.6925 10 15.5297 10 15.36V11.1998C10 11.1149 9.96488 11.0336 9.90237 10.9735C9.83986 10.9135 9.75507 10.8798 9.66667 10.8798H6.33333C6.24493 10.8798 6.16014 10.9135 6.09763 10.9735C6.03512 11.0336 6 11.1149 6 11.1998V15.36C6 15.5297 5.92976 15.6925 5.80474 15.8125C5.67971 15.9326 5.51014 16 5.33333 16H0.666667C0.489856 16 0.320287 15.9326 0.195262 15.8125C0.070238 15.6925 0 15.5297 0 15.36V7.67969C0.000163908 7.34026 0.140747 7.01479 0.390833 6.77486L7.0575 0.374621C7.30752 0.134747 7.64653 0 8 0C8.35347 0 8.69248 0.134747 8.9425 0.374621L15.6092 6.77486C15.8593 7.01479 15.9998 7.34026 16 7.67969Z" fill="white"/>
</svg>
