<svg width="20" height="20" viewBox="0 0 20 20" fill="none" xmlns="http://www.w3.org/2000/svg">
<path d="M20 8.33333V11.6667C20 11.8877 19.9122 12.0996 19.7559 12.2559C19.5996 12.4122 19.3877 12.5 19.1667 12.5H1.66667V14.1667H10.8333C11.0543 14.1667 11.2663 14.2545 11.4226 14.4107C11.5789 14.567 11.6667 14.779 11.6667 15V17.5C11.6667 17.721 11.5789 17.933 11.4226 18.0893C11.2663 18.2455 11.0543 18.3333 10.8333 18.3333H1.66667V19.1667C1.66667 19.3877 1.57887 19.5996 1.42259 19.7559C1.26631 19.9122 1.05435 20 0.833333 20C0.61232 20 0.400358 19.9122 0.244078 19.7559C0.0877975 19.5996 0 19.3877 0 19.1667V0.833333C0 0.61232 0.0877975 0.400358 0.244078 0.244078C0.400358 0.0877975 0.61232 0 0.833333 0C1.05435 0 1.26631 0.0877975 1.42259 0.244078C1.57887 0.400358 1.66667 0.61232 1.66667 0.833333V1.66667H14.1667C14.3877 1.66667 14.5996 1.75446 14.7559 1.91074C14.9122 2.06702 15 2.27899 15 2.5V5C15 5.22101 14.9122 5.43297 14.7559 5.58926C14.5996 5.74554 14.3877 5.83333 14.1667 5.83333H1.66667V7.5H19.1667C19.3877 7.5 19.5996 7.5878 19.7559 7.74408C19.9122 7.90036 20 8.11232 20 8.33333Z" fill="white"/>
</svg>
