<svg width="16" height="18" viewBox="0 0 16 18" fill="none" xmlns="http://www.w3.org/2000/svg">
<path d="M15.36 3.8562L8.59077 0.152358C8.4099 0.0524208 8.20664 0 8 0C7.79336 0 7.5901 0.0524208 7.40923 0.152358L0.64 3.85774C0.446683 3.96351 0.28531 4.11925 0.172732 4.30868C0.060154 4.49812 0.000500198 4.7143 0 4.93467V12.2916C0.000500198 12.5119 0.060154 12.7281 0.172732 12.9176C0.28531 13.107 0.446683 13.2627 0.64 13.3685L7.40923 17.0739C7.5901 17.1738 7.79336 17.2263 8 17.2263C8.20664 17.2263 8.4099 17.1738 8.59077 17.0739L15.36 13.3685C15.5533 13.2627 15.7147 13.107 15.8273 12.9176C15.9398 12.7281 15.9995 12.5119 16 12.2916V4.93543C15.9999 4.71468 15.9405 4.49801 15.8279 4.30814C15.7153 4.11826 15.5537 3.96216 15.36 3.8562ZM8 7.99851L1.81923 4.6139L8 1.22928L14.1808 4.6139L8 7.99851ZM8.61538 15.6631V9.06236L14.7692 5.69467V12.2916L8.61538 15.6631Z" fill="white"/>
</svg>
