<svg width="20" height="20" viewBox="0 0 20 20" fill="none" xmlns="http://www.w3.org/2000/svg">
<path d="M18.4615 2H1.53846C1.13044 2 0.739122 2.15325 0.450605 2.42604C0.162087 2.69882 0 3.0688 0 3.45458V17.2731C6.99926e-05 17.3971 0.0336486 17.5189 0.0975479 17.6272C0.161447 17.7354 0.253546 17.8264 0.365102 17.8915C0.476657 17.9567 0.603966 17.9938 0.734942 17.9993C0.865919 18.0048 0.996215 17.9786 1.11346 17.9231L3.84615 16.6313L6.57885 17.9231C6.68572 17.9737 6.80357 18 6.92308 18C7.04258 18 7.16044 17.9737 7.26731 17.9231L10 16.6313L12.7327 17.9231C12.8396 17.9737 12.9574 18 13.0769 18C13.1964 18 13.3143 17.9737 13.4212 17.9231L16.1538 16.6313L18.8865 17.9231C19.0038 17.9786 19.1341 18.0048 19.2651 17.9993C19.396 17.9938 19.5233 17.9567 19.6349 17.8915C19.7465 17.8264 19.8386 17.7354 19.9025 17.6272C19.9664 17.5189 19.9999 17.3971 20 17.2731V3.45458C20 3.0688 19.8379 2.69882 19.5494 2.42604C19.2609 2.15325 18.8696 2 18.4615 2ZM14.6154 11.4548H5.38462C5.1806 11.4548 4.98495 11.3782 4.84069 11.2418C4.69643 11.1054 4.61538 10.9204 4.61538 10.7275C4.61538 10.5346 4.69643 10.3496 4.84069 10.2132C4.98495 10.0768 5.1806 10.0002 5.38462 10.0002H14.6154C14.8194 10.0002 15.0151 10.0768 15.1593 10.2132C15.3036 10.3496 15.3846 10.5346 15.3846 10.7275C15.3846 10.9204 15.3036 11.1054 15.1593 11.2418C15.0151 11.3782 14.8194 11.4548 14.6154 11.4548ZM14.6154 8.54561H5.38462C5.1806 8.54561 4.98495 8.46899 4.84069 8.33259C4.69643 8.1962 4.61538 8.01121 4.61538 7.81832C4.61538 7.62543 4.69643 7.44044 4.84069 7.30405C4.98495 7.16766 5.1806 7.09103 5.38462 7.09103H14.6154C14.8194 7.09103 15.0151 7.16766 15.1593 7.30405C15.3036 7.44044 15.3846 7.62543 15.3846 7.81832C15.3846 8.01121 15.3036 8.1962 15.1593 8.33259C15.0151 8.46899 14.8194 8.54561 14.6154 8.54561Z" fill="white"/>
</svg>
