<svg width="16" height="11" viewBox="0 0 16 11" fill="none" xmlns="http://www.w3.org/2000/svg">
<path d="M15.4541 9.59505H14.9212V1.19522L15.5653 1.05667C15.6352 1.04356 15.7018 1.01658 15.7611 0.977333C15.8205 0.938085 15.8713 0.887358 15.9107 0.828142C15.9501 0.768927 15.9773 0.702421 15.9906 0.632546C16.0039 0.562671 16.0031 0.49084 15.9882 0.421287C15.9733 0.351735 15.9446 0.285869 15.9039 0.227571C15.8631 0.169274 15.8111 0.119726 15.7509 0.081847C15.6907 0.0439682 15.6235 0.0185258 15.5533 0.00701908C15.4831 -0.0044876 15.4113 -0.00182546 15.3422 0.0148486L0.420991 3.21225C0.292445 3.23999 0.178695 3.31427 0.10162 3.42082C0.0245457 3.52737 -0.0104099 3.65866 0.00347706 3.78943C0.0173641 3.9202 0.0791129 4.04122 0.176846 4.1292C0.27458 4.21719 0.401395 4.26593 0.5329 4.26606C0.57074 4.26599 0.608469 4.26197 0.645475 4.25407L1.0658 4.16414V9.59505H0.5329C0.391566 9.59505 0.256021 9.6512 0.156083 9.75113C0.0561446 9.85107 0 9.98662 0 10.128C0 10.2693 0.0561446 10.4048 0.156083 10.5048C0.256021 10.6047 0.391566 10.6609 0.5329 10.6609H15.4541C15.5954 10.6609 15.731 10.6047 15.8309 10.5048C15.9308 10.4048 15.987 10.2693 15.987 10.128C15.987 9.98662 15.9308 9.85107 15.8309 9.75113C15.731 9.6512 15.5954 9.59505 15.4541 9.59505ZM11.7238 9.59505H4.2632V8.52925H11.7238V9.59505ZM11.7238 7.46345H4.2632V6.39765H11.7238V7.46345Z" fill="white"/>
</svg>
