<svg width="16" height="16" viewBox="0 0 16 16" fill="none" xmlns="http://www.w3.org/2000/svg">
<path d="M16 6.66667V9.33333C16 9.51014 15.9298 9.67971 15.8047 9.80474C15.6797 9.92976 15.5101 10 15.3333 10H1.33333V11.3333H8.66667C8.84348 11.3333 9.01305 11.4036 9.13807 11.5286C9.2631 11.6536 9.33333 11.8232 9.33333 12V14C9.33333 14.1768 9.2631 14.3464 9.13807 14.4714C9.01305 14.5964 8.84348 14.6667 8.66667 14.6667H1.33333V15.3333C1.33333 15.5101 1.2631 15.6797 1.13807 15.8047C1.01305 15.9298 0.843478 16 0.666667 16C0.489856 16 0.320287 15.9298 0.195262 15.8047C0.070238 15.6797 0 15.5101 0 15.3333V0.666667C0 0.489856 0.070238 0.320287 0.195262 0.195262C0.320287 0.070238 0.489856 0 0.666667 0C0.843478 0 1.01305 0.070238 1.13807 0.195262C1.2631 0.320287 1.33333 0.489856 1.33333 0.666667V1.33333H11.3333C11.5101 1.33333 11.6797 1.40357 11.8047 1.5286C11.9298 1.65362 12 1.82319 12 2V4C12 4.17681 11.9298 4.34638 11.8047 4.4714C11.6797 4.59643 11.5101 4.66667 11.3333 4.66667H1.33333V6H15.3333C15.5101 6 15.6797 6.07024 15.8047 6.19526C15.9298 6.32029 16 6.48986 16 6.66667Z" fill="white"/>
</svg>
