<svg width="16" height="16" viewBox="0 0 16 16" fill="none" xmlns="http://www.w3.org/2000/svg">
<path d="M15.9179 15.68C15.8639 15.7773 15.7862 15.8581 15.6926 15.9143C15.599 15.9705 15.4929 16 15.3848 16H0.614787C0.506812 15.9999 0.400767 15.9702 0.307299 15.914C0.213832 15.8578 0.136232 15.777 0.0822927 15.6798C0.0283531 15.5825 -2.77002e-05 15.4722 2.02871e-08 15.3599C2.77407e-05 15.2477 0.028463 15.1374 0.0824506 15.0401C1.25405 12.934 3.05954 11.4238 5.16657 10.7079C4.12434 10.0628 3.31459 9.07972 2.86167 7.90974C2.40875 6.73975 2.33772 5.44752 2.65947 4.23149C2.98122 3.01546 3.67797 1.94287 4.64272 1.17844C5.60747 0.414005 6.78687 0 7.99981 0C9.21274 0 10.3921 0.414005 11.3569 1.17844C12.3216 1.94287 13.0184 3.01546 13.3401 4.23149C13.6619 5.44752 13.5909 6.73975 13.1379 7.90974C12.685 9.07972 11.8753 10.0628 10.833 10.7079C12.9401 11.4238 14.7456 12.934 15.9172 15.0401C15.9713 15.1373 15.9999 15.2477 16 15.36C16.0001 15.4723 15.9718 15.5827 15.9179 15.68Z" fill="white"/>
</svg>
