<svg width="16" height="14" viewBox="0 0 16 14" fill="none" xmlns="http://www.w3.org/2000/svg">
<path d="M14.7692 0H1.23077C0.904349 0 0.591298 0.12967 0.360484 0.360484C0.12967 0.591298 0 0.904349 0 1.23077V12.9231C5.59941e-05 13.028 0.0269189 13.1311 0.0780383 13.2227C0.129158 13.3143 0.202837 13.3913 0.292081 13.4464C0.381326 13.5015 0.483173 13.5328 0.587954 13.5375C0.692735 13.5422 0.796972 13.52 0.890769 13.4731L3.07692 12.38L5.26308 13.4731C5.34857 13.5159 5.44286 13.5381 5.53846 13.5381C5.63406 13.5381 5.72835 13.5159 5.81385 13.4731L8 12.38L10.1862 13.4731C10.2716 13.5159 10.3659 13.5381 10.4615 13.5381C10.5571 13.5381 10.6514 13.5159 10.7369 13.4731L12.9231 12.38L15.1092 13.4731C15.203 13.52 15.3073 13.5422 15.412 13.5375C15.5168 13.5328 15.6187 13.5015 15.7079 13.4464C15.7972 13.3913 15.8708 13.3143 15.922 13.2227C15.9731 13.1311 15.9999 13.028 16 12.9231V1.23077C16 0.904349 15.8703 0.591298 15.6395 0.360484C15.4087 0.12967 15.0957 0 14.7692 0ZM11.6923 8H4.30769C4.14448 8 3.98796 7.93517 3.87255 7.81976C3.75714 7.70435 3.69231 7.54783 3.69231 7.38461C3.69231 7.2214 3.75714 7.06488 3.87255 6.94947C3.98796 6.83406 4.14448 6.76923 4.30769 6.76923H11.6923C11.8555 6.76923 12.012 6.83406 12.1275 6.94947C12.2429 7.06488 12.3077 7.2214 12.3077 7.38461C12.3077 7.54783 12.2429 7.70435 12.1275 7.81976C12.012 7.93517 11.8555 8 11.6923 8ZM11.6923 5.53846H4.30769C4.14448 5.53846 3.98796 5.47363 3.87255 5.35822C3.75714 5.24281 3.69231 5.08629 3.69231 4.92308C3.69231 4.75987 3.75714 4.60334 3.87255 4.48793C3.98796 4.37253 4.14448 4.30769 4.30769 4.30769H11.6923C11.8555 4.30769 12.012 4.37253 12.1275 4.48793C12.2429 4.60334 12.3077 4.75987 12.3077 4.92308C12.3077 5.08629 12.2429 5.24281 12.1275 5.35822C12.012 5.47363 11.8555 5.53846 11.6923 5.53846Z" fill="white"/>
</svg>
