<svg width="16" height="18" viewBox="0 0 16 18" fill="none" xmlns="http://www.w3.org/2000/svg">
<path d="M14.6667 0H1.33333C0.979711 0 0.640573 0.140476 0.390524 0.390524C0.140476 0.640573 0 0.979711 0 1.33333V13.3333C0 13.687 0.140476 14.0261 0.390524 14.2761C0.640573 14.5262 0.979711 14.6667 1.33333 14.6667H2.66667V17.3333C2.66662 17.46 2.70269 17.5842 2.77065 17.6911C2.8386 17.7981 2.93564 17.8834 3.05038 17.9372C3.16512 17.991 3.29281 18.011 3.41849 17.9948C3.54417 17.9786 3.66263 17.9269 3.76 17.8458L7.575 14.6667H11.0917C11.4038 14.6668 11.7061 14.5574 11.9458 14.3575L15.52 11.3783C15.6705 11.2535 15.7916 11.097 15.8745 10.9199C15.9575 10.7429 16.0004 10.5497 16 10.3542V1.33333C16 0.979711 15.8595 0.640573 15.6095 0.390524C15.3594 0.140476 15.0203 0 14.6667 0ZM8 8.66667C8 8.84348 7.92976 9.01305 7.80474 9.13807C7.67971 9.26309 7.51014 9.33333 7.33333 9.33333C7.15652 9.33333 6.98695 9.26309 6.86193 9.13807C6.7369 9.01305 6.66667 8.84348 6.66667 8.66667V4.66667C6.66667 4.48985 6.7369 4.32029 6.86193 4.19526C6.98695 4.07024 7.15652 4 7.33333 4C7.51014 4 7.67971 4.07024 7.80474 4.19526C7.92976 4.32029 8 4.48985 8 4.66667V8.66667ZM12 8.66667C12 8.84348 11.9298 9.01305 11.8047 9.13807C11.6797 9.26309 11.5101 9.33333 11.3333 9.33333C11.1565 9.33333 10.987 9.26309 10.8619 9.13807C10.7369 9.01305 10.6667 8.84348 10.6667 8.66667V4.66667C10.6667 4.48985 10.7369 4.32029 10.8619 4.19526C10.987 4.07024 11.1565 4 11.3333 4C11.5101 4 11.6797 4.07024 11.8047 4.19526C11.9298 4.32029 12 4.48985 12 4.66667V8.66667Z" fill="white"/>
</svg>
