<svg width="16" height="14" viewBox="0 0 16 14" fill="none" xmlns="http://www.w3.org/2000/svg">
<path d="M14.7692 0H1.23077C0.904349 0 0.591298 0.12967 0.360484 0.360484C0.12967 0.591298 0 0.904349 0 1.23077V12.3077C0 12.6341 0.12967 12.9472 0.360484 13.178C0.591298 13.4088 0.904349 13.5385 1.23077 13.5385H14.7692C15.0957 13.5385 15.4087 13.4088 15.6395 13.178C15.8703 12.9472 16 12.6341 16 12.3077V1.23077C16 0.904349 15.8703 0.591298 15.6395 0.360484C15.4087 0.12967 15.0957 0 14.7692 0ZM13.5385 10.4615C13.7017 10.4615 13.8582 10.5264 13.9736 10.6418C14.089 10.7572 14.1538 10.9137 14.1538 11.0769C14.1538 11.2401 14.089 11.3967 13.9736 11.5121C13.8582 11.6275 13.7017 11.6923 13.5385 11.6923H2.46154C2.29833 11.6923 2.1418 11.6275 2.0264 11.5121C1.91099 11.3967 1.84615 11.2401 1.84615 11.0769V2.46154C1.84615 2.29833 1.91099 2.1418 2.0264 2.0264C2.1418 1.91099 2.29833 1.84615 2.46154 1.84615C2.62475 1.84615 2.78127 1.91099 2.89668 2.0264C3.01209 2.1418 3.07692 2.29833 3.07692 2.46154V7.30154L5.76 5.06538C5.86196 4.98042 5.98865 4.9307 6.12118 4.92363C6.25371 4.91656 6.38497 4.95252 6.49539 5.02615L9.80308 7.23308L13.1423 4.45C13.2678 4.34555 13.4296 4.29521 13.5922 4.31007C13.7548 4.32493 13.9048 4.40376 14.0092 4.52923C14.1137 4.6547 14.164 4.81652 14.1492 4.9791C14.1343 5.14168 14.0555 5.2917 13.93 5.39615L10.2377 8.47308C10.1357 8.55804 10.009 8.60777 9.87652 8.61484C9.74399 8.62191 9.61272 8.58594 9.50231 8.51231L6.19462 6.30538L3.07692 8.90385V10.4615H13.5385Z" fill="white"/>
</svg>
