<svg width="16" height="20" viewBox="0 0 16 20" fill="none" xmlns="http://www.w3.org/2000/svg">
<path d="M14.5455 1.45441H11.2491C10.8405 0.99689 10.3398 0.630829 9.77988 0.380194C9.21997 0.129558 8.61345 0 8 0C7.38656 0 6.78003 0.129558 6.22012 0.380194C5.66021 0.630829 5.15955 0.99689 4.75091 1.45441H1.45455C1.06878 1.45441 0.698807 1.60766 0.426026 1.88044C0.153246 2.15322 0 2.52319 0 2.90896V18.1817C0 18.5675 0.153246 18.9374 0.426026 19.2102C0.698807 19.483 1.06878 19.6362 1.45455 19.6362H14.5455C14.9312 19.6362 15.3012 19.483 15.574 19.2102C15.8468 18.9374 16 18.5675 16 18.1817V2.90896C16 2.52319 15.8468 2.15322 15.574 1.88044C15.3012 1.60766 14.9312 1.45441 14.5455 1.45441ZM8 1.45441C8.77154 1.45441 9.51148 1.76091 10.057 2.30647C10.6026 2.85203 10.9091 3.59197 10.9091 4.3635H5.09091C5.09091 3.59197 5.3974 2.85203 5.94296 2.30647C6.48852 1.76091 7.22846 1.45441 8 1.45441ZM10.9091 13.0908H5.09091C4.89802 13.0908 4.71304 13.0142 4.57665 12.8778C4.44026 12.7414 4.36364 12.5564 4.36364 12.3635C4.36364 12.1706 4.44026 11.9856 4.57665 11.8492C4.71304 11.7129 4.89802 11.6362 5.09091 11.6362H10.9091C11.102 11.6362 11.287 11.7129 11.4234 11.8492C11.5597 11.9856 11.6364 12.1706 11.6364 12.3635C11.6364 12.5564 11.5597 12.7414 11.4234 12.8778C11.287 13.0142 11.102 13.0908 10.9091 13.0908ZM10.9091 10.1817H5.09091C4.89802 10.1817 4.71304 10.1051 4.57665 9.96867C4.44026 9.83228 4.36364 9.6473 4.36364 9.45441C4.36364 9.26153 4.44026 9.07654 4.57665 8.94015C4.71304 8.80376 4.89802 8.72714 5.09091 8.72714H10.9091C11.102 8.72714 11.287 8.80376 11.4234 8.94015C11.5597 9.07654 11.6364 9.26153 11.6364 9.45441C11.6364 9.6473 11.5597 9.83228 11.4234 9.96867C11.287 10.1051 11.102 10.1817 10.9091 10.1817Z" fill="white"/>
</svg>
