<svg width="16" height="15" viewBox="0 0 16 15" fill="none" xmlns="http://www.w3.org/2000/svg">
<path d="M15.9762 4.75461L14.8731 0.892308C14.7989 0.636088 14.6438 0.410741 14.431 0.249918C14.2182 0.0890953 13.9591 0.00142534 13.6923 0H2.30769C2.04095 0.00142534 1.78183 0.0890953 1.56901 0.249918C1.3562 0.410741 1.20112 0.636088 1.12692 0.892308L0.0238461 4.75461C0.00807668 4.80938 5.01429e-05 4.86609 0 4.92308V6.15385C0 6.63152 0.111216 7.10264 0.324839 7.52989C0.538463 7.95714 0.848627 8.32878 1.23077 8.61538V14.1538C1.23077 14.3171 1.2956 14.4736 1.41101 14.589C1.52642 14.7044 1.68294 14.7692 1.84615 14.7692H14.1538C14.3171 14.7692 14.4736 14.7044 14.589 14.589C14.7044 14.4736 14.7692 14.3171 14.7692 14.1538V8.61538C15.1514 8.32878 15.4615 7.95714 15.6752 7.52989C15.8888 7.10264 16 6.63152 16 6.15385V4.92308C16 4.86609 15.9919 4.80938 15.9762 4.75461ZM4.92308 6.15385C4.92297 6.47131 4.84099 6.78338 4.68507 7.05992C4.52915 7.33646 4.30455 7.56812 4.03297 7.73252C3.76139 7.89692 3.452 7.98851 3.13469 7.99845C2.81738 8.00838 2.50287 7.93632 2.22154 7.78923C2.17873 7.75591 2.13164 7.72848 2.08154 7.70769C1.82083 7.54079 1.60627 7.311 1.4576 7.03948C1.30894 6.76796 1.23093 6.46341 1.23077 6.15385V5.53846H4.92308V6.15385ZM9.84615 6.15385C9.84615 6.64348 9.65165 7.11305 9.30543 7.45927C8.95921 7.80549 8.48963 8 8 8C7.51037 8 7.04079 7.80549 6.69457 7.45927C6.34835 7.11305 6.15385 6.64348 6.15385 6.15385V5.53846H9.84615V6.15385ZM14.7692 6.15385C14.769 6.46348 14.6909 6.76807 14.5421 7.0396C14.3933 7.31113 14.1785 7.54088 13.9177 7.70769C13.8682 7.72853 13.8217 7.75567 13.7792 7.78846C13.4979 7.93571 13.1834 8.00791 12.8661 7.9981C12.5487 7.9883 12.2392 7.89681 11.9676 7.73247C11.6959 7.56814 11.4712 7.33652 11.3152 7.05998C11.1592 6.78345 11.0771 6.47135 11.0769 6.15385V5.53846H14.7692V6.15385Z" fill="white"/>
</svg>
